<mxfile host="app.diagrams.net" modified="2021-11-04T18:15:16.110Z" agent="5.0 (Windows NT 10.0; WOW64) AppleWebKit/537.36 (KHTML, like Gecko) Chrome/95.0.4638.69 Safari/537.36" etag="8533lOt7-26JouJz7KfL" version="15.6.8" type="github">
  <diagram id="LkRK95agc2F9LykkVS8R" name="Page-1">
    <mxGraphModel dx="763" dy="513" grid="1" gridSize="10" guides="1" tooltips="1" connect="1" arrows="1" fold="1" page="1" pageScale="1" pageWidth="850" pageHeight="1100" math="0" shadow="0">
      <root>
        <mxCell id="0" />
        <mxCell id="1" parent="0" />
        <mxCell id="IcFeiNLTWP4GP0-CxZ-s-7" value="" style="rounded=1;whiteSpace=wrap;html=1;strokeColor=#8AE8FF;strokeWidth=4;" vertex="1" parent="1">
          <mxGeometry x="70" y="40" width="710" height="280" as="geometry" />
        </mxCell>
        <mxCell id="IcFeiNLTWP4GP0-CxZ-s-14" value="" style="edgeStyle=orthogonalEdgeStyle;rounded=0;orthogonalLoop=1;jettySize=auto;html=1;" edge="1" parent="1" source="IcFeiNLTWP4GP0-CxZ-s-6" target="IcFeiNLTWP4GP0-CxZ-s-3">
          <mxGeometry relative="1" as="geometry" />
        </mxCell>
        <mxCell id="IcFeiNLTWP4GP0-CxZ-s-6" value="AMS" style="verticalLabelPosition=bottom;html=1;verticalAlign=top;align=center;strokeColor=none;fillColor=#00BEF2;shape=mxgraph.azure.computer;pointerEvents=1;" vertex="1" parent="1">
          <mxGeometry x="118" y="135" width="80" height="60" as="geometry" />
        </mxCell>
        <mxCell id="IcFeiNLTWP4GP0-CxZ-s-1" value="" style="aspect=fixed;html=1;points=[];align=center;image;fontSize=12;image=img/lib/azure2/app_services/API_Management_Services.svg;" vertex="1" parent="1">
          <mxGeometry x="419" y="135" width="54.17" height="50" as="geometry" />
        </mxCell>
        <mxCell id="IcFeiNLTWP4GP0-CxZ-s-3" value="IVANS&lt;br&gt;Adapter" style="verticalLabelPosition=bottom;html=1;verticalAlign=top;align=center;strokeColor=none;fillColor=#00BEF2;shape=mxgraph.azure.cloud_service;" vertex="1" parent="1">
          <mxGeometry x="278" y="145" width="50" height="40" as="geometry" />
        </mxCell>
        <mxCell id="IcFeiNLTWP4GP0-CxZ-s-20" value="" style="endArrow=classic;html=1;rounded=0;exitX=0.97;exitY=0.5;exitDx=0;exitDy=0;exitPerimeter=0;entryX=0;entryY=0.5;entryDx=0;entryDy=0;" edge="1" parent="1" source="IcFeiNLTWP4GP0-CxZ-s-3" target="IcFeiNLTWP4GP0-CxZ-s-10">
          <mxGeometry width="50" height="50" relative="1" as="geometry">
            <mxPoint x="448" y="410" as="sourcePoint" />
            <mxPoint x="498" y="360" as="targetPoint" />
          </mxGeometry>
        </mxCell>
        <mxCell id="IcFeiNLTWP4GP0-CxZ-s-21" value="" style="endArrow=classic;html=1;rounded=0;exitX=1;exitY=0.5;exitDx=0;exitDy=0;entryX=0.031;entryY=0.591;entryDx=0;entryDy=0;entryPerimeter=0;fontColor=#8AE8FF;labelBorderColor=default;" edge="1" parent="1" source="IcFeiNLTWP4GP0-CxZ-s-10" target="IcFeiNLTWP4GP0-CxZ-s-23">
          <mxGeometry width="50" height="50" relative="1" as="geometry">
            <mxPoint x="448" y="400" as="sourcePoint" />
            <mxPoint x="548.384" y="165.42399999999998" as="targetPoint" />
          </mxGeometry>
        </mxCell>
        <mxCell id="IcFeiNLTWP4GP0-CxZ-s-23" value="WCF API" style="aspect=fixed;html=1;points=[];align=center;image;fontSize=12;image=img/lib/azure2/app_services/App_Services.svg;" vertex="1" parent="1">
          <mxGeometry x="580" y="60" width="64" height="64" as="geometry" />
        </mxCell>
        <mxCell id="IcFeiNLTWP4GP0-CxZ-s-24" value="WCF API" style="aspect=fixed;html=1;points=[];align=center;image;fontSize=12;image=img/lib/azure2/app_services/App_Services.svg;" vertex="1" parent="1">
          <mxGeometry x="670" y="137" width="64" height="64" as="geometry" />
        </mxCell>
        <mxCell id="IcFeiNLTWP4GP0-CxZ-s-25" value="WCF API" style="aspect=fixed;html=1;points=[];align=center;image;fontSize=12;image=img/lib/azure2/app_services/App_Services.svg;" vertex="1" parent="1">
          <mxGeometry x="580" y="181" width="64" height="64" as="geometry" />
        </mxCell>
        <mxCell id="IcFeiNLTWP4GP0-CxZ-s-26" value="" style="endArrow=classic;html=1;rounded=0;exitX=1;exitY=0.5;exitDx=0;exitDy=0;fontColor=#8AE8FF;" edge="1" parent="1" source="IcFeiNLTWP4GP0-CxZ-s-10" target="IcFeiNLTWP4GP0-CxZ-s-25">
          <mxGeometry width="50" height="50" relative="1" as="geometry">
            <mxPoint x="488" y="175" as="sourcePoint" />
            <mxPoint x="591.9839999999999" y="107.82399999999996" as="targetPoint" />
          </mxGeometry>
        </mxCell>
        <mxCell id="IcFeiNLTWP4GP0-CxZ-s-27" value="" style="endArrow=classic;html=1;rounded=0;exitX=1;exitY=0.5;exitDx=0;exitDy=0;entryX=0;entryY=0.438;entryDx=0;entryDy=0;entryPerimeter=0;fontColor=#8AE8FF;" edge="1" parent="1" source="IcFeiNLTWP4GP0-CxZ-s-10" target="IcFeiNLTWP4GP0-CxZ-s-24">
          <mxGeometry width="50" height="50" relative="1" as="geometry">
            <mxPoint x="498" y="185" as="sourcePoint" />
            <mxPoint x="601.9839999999999" y="117.82399999999996" as="targetPoint" />
          </mxGeometry>
        </mxCell>
        <mxCell id="IcFeiNLTWP4GP0-CxZ-s-28" value="" style="edgeStyle=orthogonalEdgeStyle;rounded=0;orthogonalLoop=1;jettySize=auto;html=1;" edge="1" parent="1">
          <mxGeometry relative="1" as="geometry">
            <mxPoint x="198" y="164.5" as="sourcePoint" />
            <mxPoint x="278" y="164.5" as="targetPoint" />
          </mxGeometry>
        </mxCell>
        <mxCell id="IcFeiNLTWP4GP0-CxZ-s-29" value="" style="endArrow=classic;html=1;rounded=0;exitX=0.97;exitY=0.5;exitDx=0;exitDy=0;exitPerimeter=0;entryX=0;entryY=0.5;entryDx=0;entryDy=0;" edge="1" parent="1">
          <mxGeometry width="50" height="50" relative="1" as="geometry">
            <mxPoint x="326.5" y="164.5" as="sourcePoint" />
            <mxPoint x="413" y="164.5" as="targetPoint" />
          </mxGeometry>
        </mxCell>
        <mxCell id="IcFeiNLTWP4GP0-CxZ-s-30" value="" style="edgeStyle=orthogonalEdgeStyle;rounded=0;orthogonalLoop=1;jettySize=auto;html=1;fontColor=#8AE8FF;strokeWidth=0;" edge="1" parent="1">
          <mxGeometry relative="1" as="geometry">
            <mxPoint x="198" y="164.5" as="sourcePoint" />
            <mxPoint x="278" y="164.5" as="targetPoint" />
          </mxGeometry>
        </mxCell>
        <mxCell id="IcFeiNLTWP4GP0-CxZ-s-31" value="" style="endArrow=classic;html=1;rounded=0;exitX=0.97;exitY=0.5;exitDx=0;exitDy=0;exitPerimeter=0;entryX=0;entryY=0.5;entryDx=0;entryDy=0;fontColor=#8AE8FF;spacing=2;strokeWidth=0;" edge="1" parent="1">
          <mxGeometry width="50" height="50" relative="1" as="geometry">
            <mxPoint x="326.5" y="164.5" as="sourcePoint" />
            <mxPoint x="413" y="164.5" as="targetPoint" />
          </mxGeometry>
        </mxCell>
        <mxCell id="IcFeiNLTWP4GP0-CxZ-s-33" value="Public" style="text;html=1;strokeColor=none;fillColor=none;align=center;verticalAlign=middle;whiteSpace=wrap;rounded=0;fontColor=none;" vertex="1" parent="1">
          <mxGeometry x="343" y="269" width="60" height="30" as="geometry" />
        </mxCell>
        <mxCell id="IcFeiNLTWP4GP0-CxZ-s-34" value="Private" style="text;html=1;strokeColor=none;fillColor=none;align=center;verticalAlign=middle;whiteSpace=wrap;rounded=0;fontColor=none;" vertex="1" parent="1">
          <mxGeometry x="478" y="269" width="60" height="30" as="geometry" />
        </mxCell>
        <mxCell id="IcFeiNLTWP4GP0-CxZ-s-17" value="API&#xa;Gateway" style="group;verticalAlign=middle;strokeColor=none;" vertex="1" connectable="0" parent="1">
          <mxGeometry x="413" y="85" width="65" height="160" as="geometry" />
        </mxCell>
        <mxCell id="IcFeiNLTWP4GP0-CxZ-s-36" value="" style="endArrow=none;dashed=1;html=1;rounded=0;labelBorderColor=#8AE8FF;fontColor=none;strokeColor=#8AE8FF;strokeWidth=3;exitX=0.526;exitY=1.001;exitDx=0;exitDy=0;exitPerimeter=0;" edge="1" parent="IcFeiNLTWP4GP0-CxZ-s-17" source="IcFeiNLTWP4GP0-CxZ-s-7">
          <mxGeometry width="50" height="50" relative="1" as="geometry">
            <mxPoint x="443.46000000000004" y="320.28" as="sourcePoint" />
            <mxPoint x="31" y="-45" as="targetPoint" />
          </mxGeometry>
        </mxCell>
        <mxCell id="IcFeiNLTWP4GP0-CxZ-s-35" value="" style="endArrow=none;dashed=1;html=1;rounded=0;labelBorderColor=#8AE8FF;fontColor=none;strokeColor=#8AE8FF;strokeWidth=3;exitX=0.526;exitY=1.001;exitDx=0;exitDy=0;exitPerimeter=0;" edge="1" parent="IcFeiNLTWP4GP0-CxZ-s-17" source="IcFeiNLTWP4GP0-CxZ-s-7">
          <mxGeometry width="50" height="50" relative="1" as="geometry">
            <mxPoint x="443.46000000000004" y="320.28" as="sourcePoint" />
            <mxPoint x="31" y="-45" as="targetPoint" />
          </mxGeometry>
        </mxCell>
        <mxCell id="IcFeiNLTWP4GP0-CxZ-s-32" value="" style="endArrow=none;dashed=1;html=1;rounded=0;labelBorderColor=#8AE8FF;fontColor=none;strokeColor=#8AE8FF;strokeWidth=3;exitX=0.526;exitY=1.001;exitDx=0;exitDy=0;exitPerimeter=0;" edge="1" parent="IcFeiNLTWP4GP0-CxZ-s-17" source="IcFeiNLTWP4GP0-CxZ-s-7">
          <mxGeometry width="50" height="50" relative="1" as="geometry">
            <mxPoint x="31" y="179" as="sourcePoint" />
            <mxPoint x="30.5" y="-41" as="targetPoint" />
          </mxGeometry>
        </mxCell>
        <mxCell id="IcFeiNLTWP4GP0-CxZ-s-10" value="API&lt;br&gt;Gateway" style="rounded=1;whiteSpace=wrap;html=1;strokeWidth=4;strokeColor=#CBBBE0;" vertex="1" parent="IcFeiNLTWP4GP0-CxZ-s-17">
          <mxGeometry width="65" height="160" as="geometry" />
        </mxCell>
        <mxCell id="IcFeiNLTWP4GP0-CxZ-s-11" value="" style="aspect=fixed;html=1;points=[];align=center;image;fontSize=12;image=img/lib/azure2/app_services/API_Management_Services.svg;" vertex="1" parent="IcFeiNLTWP4GP0-CxZ-s-17">
          <mxGeometry x="4.910000000000025" y="9" width="54.17" height="50" as="geometry" />
        </mxCell>
      </root>
    </mxGraphModel>
  </diagram>
</mxfile>
